<svg xmlns="http://www.w3.org/2000/svg" viewBox="0 0 100 100" width="100" height="100">
  <path d="M 20 20 Q 20 15, 25 15 L 55 15 Q 60 15, 60 20 Q 60 25, 55 25 Q 50 25, 50 30 Q 50 35, 45 35 L 35 35 Q 30 35, 30 40 L 30 60 Q 30 65, 35 65 L 55 65 Q 60 65, 60 70 Q 60 75, 65 75 Q 70 75, 70 70 Q 70 65, 65 65 Q 60 65, 60 60 L 60 40 Q 60 35, 65 35 Q 70 35, 70 30 Q 70 25, 65 25 L 25 25 Q 20 25, 20 20 Z" fill="none" stroke="black" stroke-width="3"/>
  
  <circle cx="25" cy="20" r="5" fill="white" stroke="black" stroke-width="2"/>
  <circle cx="35" cy="20" r="5" fill="white" stroke="black" stroke-width="2"/>
  <circle cx="45" cy="20" r="5" fill="white" stroke="black" stroke-width="2"/>
  <circle cx="55" cy="20" r="5" fill="white" stroke="black" stroke-width="2"/>
  
  <circle cx="30" cy="35" r="5" fill="white" stroke="black" stroke-width="2"/>
  <circle cx="30" cy="45" r="5" fill="white" stroke="black" stroke-width="2"/>
  <circle cx="30" cy="55" r="5" fill="white" stroke="black" stroke-width="2"/>
  <circle cx="30" cy="65" r="5" fill="white" stroke="black" stroke-width="2"/>
  
  <circle cx="40" cy="70" r="5" fill="white" stroke="black" stroke-width="2"/>
  <circle cx="50" cy="70" r="5" fill="white" stroke="black" stroke-width="2"/>
  <circle cx="60" cy="70" r="5" fill="white" stroke="black" stroke-width="2"/>
  
  <circle cx="75" cy="75" r="5" fill="white" stroke="black" stroke-width="2"/>
</svg>